<svg width="152" height="67" viewBox="0 0 152 67" fill="none" xmlns="http://www.w3.org/2000/svg">
<rect x="0.316895" y="11.6389" width="108.162" height="47.5813" rx="6" fill="#ACCDFF" fill-opacity="0.29"/>
<path fill-rule="evenodd" clip-rule="evenodd" d="M40.8353 38.145H137.867C141.421 38.145 144.302 41.0259 144.302 44.5798V58.4661L151.683 66.9899H137.967C137.934 66.9904 137.9 66.9906 137.867 66.9906H40.8353C37.2815 66.9906 34.4005 64.1097 34.4005 60.5558V44.5798C34.4005 41.0259 37.2815 38.145 40.8353 38.145Z" fill="#71E1F3"/>
<path d="M68.4786 47.8323H126.216" stroke="#1A97AB" stroke-width="0.426933" stroke-linecap="round"/>
<path d="M68.4786 56.6278L105.578 57.0534" stroke="#1A97AB" stroke-width="0.426933" stroke-linecap="round"/>
<path d="M57.9208 52.5663C57.9229 54.3798 57.3197 56.1422 56.2067 57.574C55.0938 59.0058 53.5347 60.0252 51.7768 60.4706C50.0188 60.916 48.1625 60.7619 46.5021 60.0327C44.8416 59.3035 43.472 58.041 42.6104 56.4453C41.9592 55.2564 41.6199 53.9219 41.6242 52.5663C41.5895 51.4745 41.7746 50.3869 42.1685 49.368C42.5624 48.3491 43.157 47.4198 43.9171 46.6352C44.6772 45.8506 45.5872 45.2267 46.593 44.8007C47.5989 44.3747 48.6801 44.1552 49.7725 44.1552C50.8649 44.1552 51.9461 44.3747 52.952 44.8007C53.9578 45.2267 54.8678 45.8506 55.6279 46.6352C56.388 47.4198 56.9826 48.3491 57.3765 49.368C57.7704 50.3869 57.9555 51.4745 57.9208 52.5663Z" fill="#1665DB"/>
<path d="M49.7688 54.3963C52.2577 54.3963 54.6916 55.1229 56.7724 56.4857C56.0852 57.7146 55.0865 58.7417 53.8758 59.463C52.6337 60.203 51.2147 60.5937 49.7688 60.5937C48.3229 60.5937 46.9039 60.203 45.6618 59.463C44.4511 58.7417 43.4524 57.7146 42.7652 56.4857C44.846 55.1229 47.2799 54.3963 49.7688 54.3963Z" fill="#3FC5DB" stroke="black" stroke-width="0.240102"/>
<path d="M53.2825 49.7831V49.7834C53.2825 50.478 53.0765 51.1571 52.6905 51.7347C52.3046 52.3123 51.756 52.7625 51.1142 53.0284C50.4724 53.2942 49.7662 53.3638 49.0849 53.2283C48.4036 53.0927 47.7777 52.7582 47.2865 52.267C46.7953 51.7758 46.4608 51.1499 46.3252 50.4686C46.1897 49.7873 46.2593 49.081 46.5251 48.4392C46.791 47.7974 47.2411 47.2489 47.8187 46.8629C48.3964 46.477 49.0754 46.271 49.7701 46.271L49.7704 46.271C50.2319 46.27 50.6891 46.3601 51.1156 46.5362C51.5422 46.7123 51.9298 46.971 52.2562 47.2973C52.5825 47.6237 52.8411 48.0113 53.0173 48.4378C53.1934 48.8644 53.2835 49.3216 53.2825 49.7831Z" fill="white" stroke="black" stroke-width="0.240102"/>
<path fill-rule="evenodd" clip-rule="evenodd" d="M124.575 -4.57764e-05H27.5433C23.9895 -4.57764e-05 21.1085 2.88092 21.1085 6.43476V20.32L13.7268 28.8441H27.4044C27.4506 28.8451 27.4969 28.8456 27.5433 28.8456H124.575C128.129 28.8456 131.01 25.9647 131.01 22.4108V6.43476C131.01 2.88092 128.129 -4.57764e-05 124.575 -4.57764e-05Z" fill="#1665DB"/>
<path d="M30.9806 9.47203H88.7177" stroke="#9AC3FF" stroke-width="0.426933" stroke-linecap="round"/>
<path d="M30.9808 18.268L68.0807 18.6936" stroke="#9AC3FF" stroke-width="0.426933" stroke-linecap="round"/>
<path d="M107.49 14.4216C107.487 16.2351 108.091 17.9974 109.204 19.4292C110.317 20.861 111.876 21.8804 113.634 22.3258C115.392 22.7712 117.248 22.6171 118.908 21.8879C120.569 21.1588 121.938 19.8963 122.8 18.3005C123.451 17.1117 123.79 15.7771 123.786 14.4216C123.821 13.3298 123.636 12.2421 123.242 11.2232C122.848 10.2043 122.253 9.27499 121.493 8.4904C120.733 7.70582 119.823 7.08199 118.817 6.65596C117.811 6.22993 116.73 6.01039 115.638 6.01039C114.545 6.01039 113.464 6.22993 112.458 6.65596C111.452 7.08199 110.542 7.70582 109.782 8.4904C109.022 9.27499 108.428 10.2043 108.034 11.2232C107.64 12.2421 107.455 13.3298 107.49 14.4216Z" fill="#71E1F3"/>
<path d="M115.641 16.2516C113.152 16.2516 110.718 16.9781 108.638 18.341C109.325 19.5698 110.323 20.5969 111.534 21.3182C112.776 22.0582 114.195 22.4489 115.641 22.4489C117.087 22.4489 118.506 22.0582 119.748 21.3182C120.959 20.5969 121.958 19.5698 122.645 18.341C120.564 16.9781 118.13 16.2516 115.641 16.2516Z" fill="#2F73D8" stroke="black" stroke-width="0.240102"/>
<path d="M112.133 11.6386V11.6388C112.133 12.3335 112.339 13.0126 112.725 13.5902C113.111 14.1678 113.659 14.618 114.301 14.8839C114.943 15.1497 115.649 15.2193 116.33 15.0837C117.012 14.9482 117.637 14.6137 118.129 14.1225C118.62 13.6313 118.954 13.0054 119.09 12.3241C119.225 11.6427 119.156 10.9365 118.89 10.2947C118.624 9.65293 118.174 9.10437 117.596 8.71842C117.019 8.33248 116.34 8.12648 115.645 8.12648L115.645 8.12648C115.183 8.12544 114.726 8.21557 114.3 8.3917C113.873 8.56782 113.485 8.82649 113.159 9.15282C112.833 9.47916 112.574 9.86675 112.398 10.2933C112.222 10.7199 112.132 11.1771 112.133 11.6386Z" fill="white" stroke="black" stroke-width="0.240102"/>
</svg>
